<svg width="169" height="77" viewBox="0 0 169 77" fill="none" xmlns="http://www.w3.org/2000/svg">
<path fill-rule="evenodd" clip-rule="evenodd" d="M1.78939 69.6203C-0.800252 71.1232 -0.530818 74.4151 2.28489 75.6734C3.76963 76.3369 5.5179 76.0582 6.71765 74.9666C7.67995 74.0912 7.10888 73.8837 5.68022 74.5894C4.15889 75.341 2.23626 75.033 1.42204 73.9071C0.880104 73.1578 0.982618 71.7644 1.63496 71.0137C2.7035 69.7841 4.4395 69.6477 5.99653 70.6707C7.29639 71.525 7.83526 71.3241 7.00045 70.2966C5.93739 68.9878 3.43799 68.6635 1.78939 69.6203ZM8.53119 72.2031C8.53317 73.924 8.62779 75.475 8.74192 75.65C9.03676 76.1025 14.2233 76.2599 14.2233 75.8163C14.2233 75.1724 13.6949 75.0137 11.5508 75.0137H9.40412V72.2986C9.40412 69.7122 9.26546 69.0743 8.70315 69.0743C8.60676 69.0743 8.52944 70.4822 8.53119 72.2031ZM15.3186 72.3198C15.3186 75.435 15.4379 76.0743 16.0195 76.0743C16.1159 76.0743 16.1948 74.6138 16.1948 72.8289C16.1948 69.7137 16.0754 69.0743 15.4938 69.0743C15.3974 69.0743 15.3186 70.5348 15.3186 72.3198ZM17.743 69.4718C17.4611 69.9816 17.4228 76.0743 17.7014 76.0743C18.2668 76.0743 18.5001 75.2589 18.6044 72.9175L18.7139 70.4599L20.6196 72.9065C22.9453 75.8923 23.3164 76.2436 23.8198 75.9364C24.1374 75.7427 24.1988 75.2377 24.2505 72.3923C24.2846 70.5163 24.2248 69.0743 24.1131 69.0743C23.6086 69.0743 23.4338 69.8053 23.376 72.156L23.314 74.6811L21.1184 71.9307C18.8521 69.0917 18.2112 68.6246 17.743 69.4718ZM25.6141 72.1028C25.6141 74.5006 25.685 75.2296 25.9551 75.6027C26.1426 75.8622 26.3891 76.0743 26.5028 76.0743C26.7875 76.0743 26.7689 70.0028 26.4826 69.4846C26.3577 69.2589 26.1113 69.0743 25.935 69.0743C25.6682 69.0743 25.6141 69.5845 25.6141 72.1028ZM29.8746 69.3728C28.9951 69.7438 28.0889 70.8095 27.8149 71.7952C27.221 73.9306 29.2337 76.0683 31.8426 76.073C32.606 76.0745 34.1611 75.3834 34.7056 74.8007C35.0763 74.4041 35.0758 74.3799 34.6969 74.239C34.4535 74.1484 33.9819 74.2696 33.4737 74.5528C30.6976 76.0997 27.5658 73.7113 29.1246 71.2358C30.0161 69.8195 32.0818 69.5667 33.7291 70.672C34.2533 71.0239 34.726 71.1923 34.9527 71.1081C35.2725 70.9891 35.2368 70.8841 34.6848 70.3218C34.3343 69.9648 33.7814 69.5382 33.4562 69.3736C32.7168 68.9997 30.7603 68.9992 29.8746 69.3728ZM38.6074 69.3287C38.4854 69.4805 37.718 70.8933 36.9023 72.4682C36.0865 74.0432 35.3323 75.4227 35.2261 75.5334C34.9083 75.8656 35.0062 76.0743 35.4798 76.0743C35.774 76.0743 36.1293 75.7508 36.5203 75.1265L37.1143 74.1786L39.4144 74.1724L41.7145 74.1663L42.1526 74.9435C42.6327 75.7949 43.238 76.2624 43.5111 75.9928C43.6073 75.898 42.8853 74.3264 41.9068 72.5005C40.2645 69.4358 40.0777 69.1755 39.4786 69.1165C39.1215 69.0813 38.7296 69.1768 38.6074 69.3287ZM44.4526 72.1501C44.4526 76.1691 44.3705 76.0743 47.8479 76.0743C49.9143 76.0743 50.3671 76.0185 50.3671 75.7635C50.3671 75.2224 49.5785 75.0137 47.5338 75.0137H45.5479V72.5881C45.5479 70.0352 45.3398 69.0743 44.7867 69.0743C44.5028 69.0743 44.4526 69.5353 44.4526 72.1501ZM54.8029 69.314C54.6079 69.506 54.5291 70.5191 54.5291 72.8363C54.5291 76.0234 54.5378 76.0847 54.9672 75.8622C55.3707 75.653 55.4053 75.418 55.4053 72.8851V70.1349H57.3912C59.6061 70.1349 60.2245 70.3392 60.2245 71.071C60.2245 71.8389 59.651 72.132 57.874 72.2729C56.3643 72.3925 55.8583 72.6133 55.8467 73.1576C55.8449 73.2452 56.319 73.3167 56.9003 73.3167C57.9369 73.3167 57.98 73.3437 59.1128 74.6955C60.1723 75.9602 60.8838 76.3736 61.1859 75.9003C61.247 75.8045 60.8584 75.2086 60.3226 74.5761C59.7868 73.9433 59.3482 73.3744 59.3482 73.3116C59.3482 73.2491 59.6457 73.0889 60.0091 72.9559C60.7752 72.6761 61.401 71.477 61.1953 70.6835C61.1228 70.4039 60.8179 69.9512 60.5175 69.6778C60.0234 69.2277 59.7382 69.174 57.524 69.1125C55.7564 69.0635 55.0007 69.1195 54.8029 69.314ZM62.5114 69.5942C62.2246 70.018 62.1731 70.6033 62.2325 72.7659C62.2822 74.5738 62.3959 75.5056 62.5896 75.6931C63.0158 76.1059 68.5485 76.2194 68.5485 75.8153C68.5485 75.1594 68.0232 75.0137 65.657 75.0137H63.2912V73.9531V72.8925H65.1676C67.1097 72.8925 67.8913 72.6774 67.8913 72.1426C67.8913 71.8894 67.4637 71.8319 65.5788 71.8319H63.266L63.3335 70.9304L63.4007 70.0289L65.7974 69.9682C68.0153 69.9122 68.7675 69.733 68.7675 69.2606C68.7675 69.1581 67.439 69.0743 65.8153 69.0743C62.9241 69.0743 62.8559 69.0849 62.5114 69.5942ZM70.1145 69.4233C69.254 69.8467 68.8746 70.5231 69.0718 71.2833C69.277 72.075 69.9515 72.4002 72.1536 72.7697C74.1825 73.1099 75.037 73.5751 74.788 74.2036C74.4316 75.1032 71.9265 75.2998 70.3763 74.5502C69.6755 74.2112 69.3528 74.1499 69.1754 74.3218C68.998 74.4936 69.0797 74.6989 69.4794 75.0858C70.4485 76.0244 72.4803 76.3244 74.094 75.7669C75.2451 75.3694 75.7772 74.8482 75.7772 74.1183C75.7772 72.7561 75.0002 72.2362 72.3547 71.8287C71.5263 71.701 70.6087 71.445 70.3156 71.2596L69.7826 70.9227L70.2595 70.549C70.9786 69.9852 72.6533 69.832 73.8156 70.224C75.6865 70.8549 76.3148 70.5426 75.0355 69.6176C74.1998 69.0132 71.19 68.8944 70.1145 69.4233ZM77.1354 69.3289C76.8147 69.6394 76.7719 75.1673 77.0865 75.65C77.2486 75.8989 77.8979 75.9837 80.0658 76.0391C82.9422 76.1127 83.5267 75.9725 82.8949 75.3607C82.6069 75.0818 82.0669 75.0137 80.1427 75.0137H77.7487V73.9531V72.8925H79.6713C81.5462 72.8925 82.5679 72.5889 82.5679 72.0319C82.5679 71.9186 81.5173 71.8319 80.1458 71.8319H77.7235L77.791 70.9304L77.8582 70.0289L80.4845 69.9228C82.7602 69.831 83.1203 69.7671 83.1839 69.4455C83.2507 69.107 82.9996 69.0743 80.3276 69.0743C78.3412 69.0743 77.3137 69.1562 77.1354 69.3289ZM87.4488 69.3395C87.1658 69.6952 83.8822 75.7992 83.8822 75.9697C83.8822 76.0433 84.1026 76.0732 84.3718 76.0361C84.6841 75.9928 85.0482 75.6394 85.3779 75.0597L85.8944 74.1512L88.2289 74.2112L90.5633 74.2713L91.0014 75.0682C91.4211 75.8316 92.0813 76.2658 92.381 75.9757C92.5322 75.8293 89.518 70.0707 88.9631 69.4455C88.5798 69.0139 87.7537 68.9562 87.4488 69.3395ZM93.5643 69.3289C93.2415 69.6415 93.1878 76.0743 93.508 76.0743C93.6217 76.0743 93.8682 75.8622 94.0557 75.6027C94.3174 75.2409 94.3967 74.5511 94.3967 72.6331V70.1349H96.3682C98.0477 70.1349 98.4045 70.1977 98.7778 70.5592C99.0188 70.7925 99.2159 71.0789 99.2159 71.1955C99.2159 71.3122 99.0188 71.5986 98.7778 71.8319C98.4328 72.166 98.0477 72.2561 96.9647 72.2561C95.6364 72.2561 94.6158 72.6301 94.6158 73.1167C94.6158 73.2268 95.0911 73.3167 95.6721 73.3167C96.6972 73.3167 96.7658 73.3575 97.9864 74.6955C98.6781 75.4538 99.38 76.0743 99.5458 76.0743C100.206 76.0743 100.075 75.5924 99.1211 74.511C98.0273 73.2713 97.9498 73.1046 98.4661 73.1046C99.0256 73.1046 100.092 71.9259 100.092 71.3073C100.092 70.4287 99.5138 69.5667 98.7517 69.3094C97.796 68.9867 93.9026 69.0014 93.5643 69.3289ZM103.159 69.3125C100.51 70.3354 100.182 73.9838 102.607 75.4356C103.764 76.1277 105.332 76.223 106.507 75.6721C107.043 75.4207 107.656 75.0285 107.869 74.8007C108.24 74.4041 108.24 74.3799 107.861 74.239C107.617 74.1484 107.146 74.2696 106.637 74.5528C105.637 75.1102 104.035 75.1628 103.168 74.6667C101.316 73.6075 101.494 71.1713 103.489 70.2543C104.527 69.7773 105.798 69.9419 106.932 70.6998C107.428 71.0316 107.892 71.1915 108.116 71.1081C108.436 70.9891 108.401 70.8841 107.849 70.3218C107.498 69.9648 106.945 69.5382 106.62 69.3736C105.946 69.0325 103.974 68.9977 103.159 69.3125ZM109.292 72.5743C109.292 74.6259 109.378 76.0743 109.499 76.0743C109.965 76.0743 110.388 75.0894 110.388 74.0048V72.8781L112.742 72.9383L115.097 72.9985L115.162 74.3222C115.214 75.3785 115.314 75.6908 115.655 75.8675C116.072 76.0832 116.083 75.9952 116.083 72.5817C116.083 70.6527 116.004 69.0743 115.908 69.0743C115.465 69.0743 115.207 69.6759 115.207 70.7077V71.8319H112.797H110.388V70.8633C110.388 69.7682 110.087 69.0743 109.613 69.0743C109.344 69.0743 109.292 69.642 109.292 72.5743ZM120.808 69.4076C120.526 69.681 120.464 70.3116 120.464 72.9076C120.464 74.715 120.551 76.0743 120.668 76.0743C120.779 76.0743 121.026 75.9243 121.215 75.741C121.491 75.4738 121.559 74.8851 121.559 72.7714V70.1349H123.326C125.431 70.1349 125.94 70.3415 125.94 71.1955C125.94 71.9647 125.437 72.2561 124.107 72.2561C122.886 72.2561 121.997 72.5665 121.997 72.9932C121.997 73.2457 122.274 73.3165 123.257 73.3155C124.956 73.314 126.049 72.9894 126.588 72.3263C127.394 71.334 127.034 69.9595 125.822 69.4027C124.815 68.9398 121.288 68.9435 120.808 69.4076ZM128.69 72.187C130.542 75.6187 130.861 76.0743 131.417 76.0743C131.971 76.0743 132.288 75.6214 134.137 72.1876L135.829 69.0431L135.213 69.1119C134.556 69.1848 134.639 69.0639 132.577 72.9555C132.033 73.9819 131.493 74.7907 131.375 74.7528C131.258 74.715 130.505 73.4457 129.701 71.9322C128.393 69.4674 128.175 69.1732 127.617 69.1112L126.993 69.0423L128.69 72.187ZM136.236 69.3885C136.236 69.5611 136.496 69.7658 136.814 69.843C137.331 69.9686 137.622 70.0121 138.591 70.1078C138.794 70.1279 138.865 70.8146 138.865 72.7535C138.865 75.0211 138.918 75.4193 139.265 75.7232C139.486 75.9163 139.732 76.0743 139.813 76.0743C139.894 76.0743 139.96 74.7379 139.96 73.1046C139.96 70.8805 140.029 70.13 140.234 70.1158C142.351 69.9682 142.588 69.8942 142.588 69.38C142.588 69.128 142.032 69.0743 139.412 69.0743C136.753 69.0743 136.236 69.1254 136.236 69.3885ZM147.846 72.1501C147.846 76.1691 147.764 76.0743 151.241 76.0743C153.162 76.0743 153.76 76.0087 153.76 75.7985C153.76 75.1734 153.216 75.0137 151.088 75.0137H148.941V72.4542C148.941 69.8768 148.757 69.0743 148.167 69.0743C147.9 69.0743 147.846 69.5904 147.846 72.1501ZM152.227 69.2606C152.227 69.6314 152.808 69.8984 153.93 70.0427L155.074 70.1897V72.9124C155.074 75.418 155.109 75.6532 155.513 75.8622C155.941 76.0843 155.951 76.0234 155.951 73.112C155.951 70.1733 155.957 70.1347 156.444 70.1107C158.007 70.034 158.798 69.7482 158.798 69.2606C158.798 69.1581 157.32 69.0743 155.513 69.0743C153.705 69.0743 152.227 69.1581 152.227 69.2606ZM159.948 69.3132C159.755 69.5037 159.675 70.4705 159.675 72.5911V75.5985L160.341 75.866C161.147 76.1893 163.798 76.0028 164.675 75.5612C165.926 74.931 166.684 73.7645 166.684 72.4716C166.684 71.3536 166.233 70.5212 165.224 69.7747C164.494 69.2351 164.226 69.174 162.321 69.1117C160.83 69.0629 160.143 69.1212 159.948 69.3132ZM164.458 70.4353C165.952 71.1834 166.13 73.1878 164.809 74.3901C164.317 74.8374 163.99 74.9178 162.395 74.9825L160.551 75.0572V72.6314C160.551 71.2973 160.625 70.132 160.715 70.0418C160.992 69.7656 163.687 70.0488 164.458 70.4353ZM40.3125 71.6179C40.7462 72.4318 41.0501 73.1468 40.9879 73.2073C40.8269 73.363 37.9816 73.3435 37.8184 73.1854C37.6587 73.0308 39.1255 70.1341 39.3625 70.1366C39.4512 70.1375 39.8788 70.804 40.3125 71.6179ZM89.1614 71.6179C89.5951 72.4318 89.8989 73.1468 89.8367 73.2073C89.6878 73.3513 86.5108 73.3496 86.5108 73.2054C86.5108 72.9402 88.0652 70.1351 88.2113 70.1366C88.3001 70.1375 88.7276 70.804 89.1614 71.6179ZM142.229 75.1212C142.152 75.3164 142.241 75.617 142.432 75.8015C142.897 76.252 143.514 75.9939 143.425 75.3857C143.339 74.7967 142.437 74.5973 142.229 75.1212ZM167.639 75.1225C167.493 75.4888 167.917 76.0743 168.327 76.0743C168.747 76.0743 169.118 75.5338 168.965 75.1467C168.792 74.7116 167.808 74.6938 167.639 75.1225Z" fill="#1E1E1E"/>
<path fill-rule="evenodd" clip-rule="evenodd" d="M68.5695 1.1918C67.8832 1.57299 67.4681 2.35272 67.4585 3.27949C67.453 3.82046 67.6945 4.3511 68.3303 5.19536C68.8139 5.83749 69.322 6.63653 69.4593 6.97099C69.6806 7.50975 69.72 7.52885 69.8062 7.13997C69.8596 6.89856 70.2914 6.19323 70.7656 5.57238C71.2395 4.95154 71.7061 4.16149 71.802 3.81673C72.3392 1.8855 70.3006 0.229915 68.5695 1.1918ZM63.5978 6.67911C62.5239 7.75555 62.58 8.55415 63.8502 10.2675C65.1977 12.0852 65.285 12.7638 64.3511 14.1556C63.2884 15.7387 61.9558 16.6864 60.7922 16.6864C60.0545 16.6864 59.605 16.5036 58.6398 15.8107C56.8954 14.5585 56.5258 14.4543 55.4837 14.9219C53.9718 15.6005 53.6967 17.323 54.9064 18.5357C55.7388 19.3703 56.8579 19.3069 58.1023 18.3547C59.4699 17.3083 59.8675 17.1253 60.7736 17.1253C61.7544 17.1253 62.287 17.3899 63.3639 18.4131C64.4649 19.4588 64.8237 20.1845 64.8237 21.3652C64.8237 22.1704 64.6716 22.5266 63.9268 23.4643C62.7402 24.9581 62.5822 25.9856 63.3911 26.9493C64.1197 27.8172 65.1628 28.0547 66.1042 27.5666C67.6122 26.7849 67.6542 25.32 66.224 23.4125C65.294 22.1724 65.2235 21.9889 65.3141 21.0426C65.3896 20.2554 65.6241 19.7504 66.3223 18.8717C67.067 17.934 67.2319 17.5574 67.2319 16.7943C67.2319 16.1899 67.1034 15.7563 66.8661 15.561C66.6649 15.3955 66.2216 14.8208 65.8809 14.2842C64.9483 12.8151 65.0639 11.6136 66.2618 10.3221C66.5418 10.0203 66.9252 9.40323 67.1137 8.95049C67.4156 8.22628 67.4191 8.03711 67.1426 7.37391C66.5053 5.84517 64.7692 5.50479 63.5978 6.67911ZM73.4148 6.26082C72.0014 6.87662 71.893 8.46374 73.1503 10.1356C73.6361 10.7812 74.0902 11.532 74.1593 11.8034C74.3141 12.4113 74.6753 12.4552 74.6753 11.866C74.6753 11.6287 74.9534 11.1102 75.2929 10.7138C76.7402 9.02467 77.0356 7.85408 76.2577 6.89132C75.4784 5.92703 74.6189 5.73632 73.4148 6.26082ZM69.4212 8.63776C69.4212 8.79775 68.9778 9.50089 68.436 10.2005C67.6634 11.1977 67.4508 11.6524 67.4508 12.3069C67.4508 13.2887 68.237 14.3667 69.1142 14.5873C70.308 14.8877 71.7102 13.9816 71.8341 12.8298C71.941 11.8381 71.7763 11.3922 70.8442 10.1492C70.3023 9.42649 69.859 8.72555 69.859 8.59124C69.859 8.45693 69.7605 8.34698 69.6401 8.34698C69.5197 8.34698 69.4212 8.47778 69.4212 8.63776ZM59.6011 10.6656C58.9364 11.1455 58.4832 12.2415 58.6304 13.0129C58.7945 13.8742 59.8675 14.7112 60.8073 14.7112C62.5445 14.7112 63.5189 12.4388 62.3604 11.0889C61.7211 10.3436 60.3401 10.1318 59.6011 10.6656ZM77.691 10.6642C76.6271 11.2429 76.3473 12.399 76.9762 13.6183C78.1057 15.8077 81.5034 14.3974 80.9005 11.9895C80.7098 11.2276 79.6003 10.3199 78.8728 10.3309C78.551 10.3357 78.0192 10.4858 77.691 10.6642ZM74.4004 12.6459C74.3108 12.7357 74.2375 12.9784 74.2375 13.1851C74.2375 13.3921 73.7942 14.1334 73.2523 14.8328C71.9316 16.538 71.9324 17.2142 73.2582 18.974C74.7137 20.9063 74.6535 21.5989 72.811 24.1255C72.1978 24.9663 72.1192 25.8577 72.5791 26.7496C72.8894 27.3511 73.7305 27.8787 74.3789 27.8787C75.0272 27.8787 76.1485 27.1962 76.3963 26.6508C76.9228 25.4927 76.7065 24.792 75.2638 22.9791C74.0429 21.4449 74.6276 19.5312 76.8324 17.8453C77.533 17.3098 77.998 17.1253 78.6473 17.1253C79.6305 17.1253 80.0618 17.3171 81.4388 18.367C82.0185 18.8092 82.6534 19.1004 83.0367 19.1004C84.7709 19.1004 85.9044 17.4215 85.1581 15.9586C84.4212 14.5142 82.8951 14.3105 81.3968 15.457C80.0438 16.4921 79.6307 16.6864 78.7828 16.6864C77.3215 16.6864 75.0138 14.6902 74.7005 13.1551C74.6252 12.7853 74.4901 12.5562 74.4004 12.6459ZM59.3241 19.7184C58.3915 20.5539 58.3436 21.9215 59.2162 22.7963C60.0636 23.6456 61.5821 23.6298 62.3251 22.764C63.1003 21.8605 63.0533 20.5837 62.2135 19.7419C61.3487 18.875 60.2756 18.8664 59.3241 19.7184ZM68.1952 19.8465C67.0979 20.9465 67.1588 21.8864 68.4384 23.5949C68.9789 24.3169 69.4212 25.0762 69.4212 25.2827C69.4212 25.4892 69.5197 25.7192 69.6401 25.7938C69.7631 25.87 69.859 25.6951 69.859 25.3942C69.859 25.0947 70.2927 24.2991 70.8442 23.5874C71.6255 22.5786 71.8293 22.139 71.8293 21.4615C71.8293 20.3792 71.5447 19.8496 70.7391 19.4318C69.7198 18.9035 69.0227 19.017 68.1952 19.8465ZM77.2856 19.7419C75.7899 21.2412 77.1766 23.8413 79.2307 23.389C80.4974 23.1101 81.2243 21.7997 80.8101 20.5413C80.3072 19.0139 78.4354 18.5893 77.2856 19.7419ZM5.27485 25.223C3.627 25.7486 2.49845 26.7511 1.7911 28.3176C1.35654 29.2801 1.34493 29.6888 1.34034 44.3999C1.33508 60.8326 1.28736 60.1584 2.5777 61.8544C2.89908 62.2766 3.68743 62.8589 4.37704 63.183L5.60455 63.76L16.0035 63.7549C27.3215 63.7496 28.7453 63.6322 31.8904 62.4454C33.7305 61.7513 36.1413 60.1541 37.0111 59.0533C38.7997 56.7893 39.6139 53.6625 39.2012 50.6412C38.7712 47.4938 37.3093 44.9762 34.9764 43.3656L33.7752 42.5362L34.8312 41.2226C36.386 39.2883 36.9108 37.7183 36.9108 34.9996C36.9108 32.8909 36.8745 32.7195 36.0863 31.1214C35.083 29.0866 33.6847 27.7477 31.4561 26.6875C28.4292 25.2476 27.797 25.1822 16.2224 25.1115C10.503 25.0767 5.57653 25.1269 5.27485 25.223ZM69.5692 26.2674C69.4877 26.3489 69.4212 26.574 69.4212 26.7674C69.4212 26.9609 68.9789 27.7097 68.4384 28.4317C67.2078 30.0746 67.1082 31.0804 68.0796 32.0541C68.9581 32.9348 69.7592 33.0932 70.7207 32.5764C71.7435 32.0267 72.1864 30.8284 71.7512 29.7873C71.5898 29.4015 71.1831 28.7589 70.8472 28.3597C70.5114 27.9603 70.1195 27.293 69.9768 26.8764C69.8338 26.4599 69.6504 26.1858 69.5692 26.2674ZM79.7106 42.5716C79.7106 53.0156 79.7921 59.1759 79.939 59.8538C80.3893 61.9319 82.5391 63.9331 84.527 64.1249L85.2932 64.1989L85.3492 47.8555C85.4136 29.1614 85.4764 29.9069 83.6854 28.1115C82.7022 27.1259 81.1185 26.3425 80.1095 26.3425C79.7273 26.3425 79.7106 27.0178 79.7106 42.5716ZM92.0186 43.1602L92.0799 60.0292L92.5954 61.069C93.4166 62.7257 94.8701 63.8131 96.732 64.1635C97.3113 64.2726 97.4438 64.2272 97.4446 63.9191C97.4453 63.7108 97.4475 56.1393 97.4494 47.0935L97.4534 30.6465L96.8772 29.466C96.0882 27.8495 94.6558 26.7985 92.7535 26.4408L91.9573 26.2911L92.0186 43.1602ZM27.008 30.8131C28.8715 31.2561 30.0184 31.8384 30.7535 32.714C31.4732 33.5716 31.6255 34.1714 31.5021 35.6637C31.2503 38.7056 28.6795 39.881 21.6955 40.1472C17.1187 40.3217 16.5283 40.497 15.0704 42.1144C14.3191 42.9482 13.4653 45.0471 13.7137 45.4498C13.7746 45.5487 16.4985 45.6378 19.7664 45.6477C26.5441 45.6683 28.098 45.8764 30.6134 47.0996C32.9113 48.2173 33.9262 49.7496 33.9446 52.1287C33.9696 55.4173 32.0432 57.2146 27.6065 58.0418C26.0587 58.3304 24.1617 58.3789 16.3319 58.331L6.9181 58.2735L6.86162 44.582C6.81871 34.1499 6.86819 30.8144 7.06916 30.5716C7.46761 30.0904 24.8546 30.3011 27.008 30.8131ZM52.6911 36.2207C48.9357 36.887 45.8346 39.4006 44.3015 43.0212L43.6977 44.4477L43.6305 54.3751L43.5635 64.3025L44.2873 64.164C45.3309 63.9641 46.8881 63.1316 47.5705 62.4088C47.8945 62.0655 48.3604 61.3404 48.6056 60.7973C49.0235 59.8718 49.0519 59.3748 49.0576 52.8968C49.0609 48.9532 49.1581 45.6424 49.2838 45.1888C49.6328 43.93 51.0713 42.4616 52.4698 41.9371C53.9848 41.3689 55.198 41.3652 56.9424 41.924C58.5706 42.4454 59.6289 42.4772 60.859 42.0422C61.9247 41.6652 63.2913 40.6737 63.2913 40.2776C63.2913 39.9471 62.02 38.7649 60.6447 37.8164C58.7192 36.4884 55.1823 35.7787 52.6911 36.2207ZM115.139 36.2231C108.098 37.4143 103.016 42.5992 102.548 49.0701C102.367 51.5691 102.753 53.5056 103.904 55.8595C105.077 58.261 106.595 60.0193 108.759 61.4831C115.995 66.3783 126.221 64.6635 130.99 57.7549C131.524 56.9814 131.593 56.7584 131.35 56.5947C129.178 55.1333 127.091 55.2461 124.479 56.966C122.435 58.3115 120.886 58.8503 118.679 58.9835C115.569 59.1711 112.702 58.1757 110.451 56.1264C109.343 55.1177 108.057 53.039 108.299 52.6464C108.363 52.5428 112.72 52.4572 117.981 52.4566C123.241 52.4559 128.132 52.3592 128.849 52.2415C130.394 51.9878 131.932 51.0966 132.653 50.0371C133.11 49.3644 133.159 49.0897 133.072 47.6779C132.821 43.5839 128.951 38.9758 124.198 37.1106C121.806 36.1722 117.775 35.7774 115.139 36.2231ZM137.485 36.2892C136.931 36.445 136.172 36.7661 135.8 37.0024L135.123 37.4321L136.698 39.2082C144.748 48.284 146.292 50.0908 146.203 50.3241C146.1 50.5923 145.554 51.221 138.845 58.8029L135.269 62.8437L135.786 63.2477C137.232 64.3779 140.005 64.5597 141.651 63.6322C142.157 63.3476 144.022 61.3984 146.295 58.78L150.094 54.4034L150.97 55.3752C151.452 55.9095 153.217 57.8978 154.893 59.7933C158.329 63.6799 158.991 64.1524 161.041 64.1793C162.401 64.1971 164.189 63.6627 164.655 63.0992C164.944 62.7505 165.001 62.8194 157.101 53.8936C154.452 50.9006 151.447 47.4947 150.423 46.325C143.666 38.6007 142.067 36.9094 141.196 36.56C139.936 36.0544 138.652 35.9606 137.485 36.2892ZM159.601 36.2986C159.17 36.4531 158.596 36.7347 158.326 36.9245C157.687 37.3733 150.85 45.0607 150.918 45.2531C151.027 45.5595 154.454 49.2758 154.627 49.2758C154.726 49.2758 157.161 46.6094 160.037 43.3504C165.245 37.4486 165.264 37.4235 164.796 37.0415C163.669 36.1235 161.111 35.7576 159.601 36.2986ZM67.6698 47.6996C67.6698 60.4681 67.6978 60.7567 69.0877 62.2988C69.8671 63.1637 71.2503 63.948 72.4314 64.1947L73.1429 64.3435L73.1381 52.4204C73.1335 40.9052 73.1179 40.4637 72.6877 39.5099C71.8534 37.6601 69.9352 36.2181 68.3084 36.2181H67.6698V47.6996ZM121.325 41.724C123.207 42.3385 124.727 43.2352 125.828 44.3799C126.732 45.3201 127.655 46.822 127.655 47.3522C127.655 47.5719 125.645 47.6298 118.035 47.6298C112.744 47.6298 108.365 47.5476 108.303 47.4468C107.905 46.801 110.272 43.9179 112.07 42.8582C114.825 41.2346 118.461 40.7891 121.325 41.724Z" fill="#B5191C"/>
<path fill-rule="evenodd" clip-rule="evenodd" d="M63.6575 6.64782C62.5843 7.72415 62.6404 8.52266 63.9098 10.2358C65.2565 12.0533 65.3438 12.7318 64.4104 14.1235C63.3484 15.7065 62.0166 16.654 60.8537 16.654C60.1163 16.654 59.6671 16.4712 58.7024 15.7784C56.9591 14.5264 56.5897 14.4221 55.5483 14.8897C54.0372 15.5682 53.7622 17.2906 54.9713 18.5031C55.8032 19.3377 56.9216 19.2742 58.1653 18.3221C59.5321 17.2759 59.9295 17.0928 60.8351 17.0928C61.8153 17.0928 62.3476 17.3575 63.4239 18.3805C64.5242 19.4261 64.8828 20.1517 64.8828 21.3323C64.8828 22.1374 64.7307 22.4935 63.9864 23.4312C62.8005 24.9249 62.6425 25.9522 63.451 26.9158C64.1792 27.7836 65.2217 28.0211 66.1626 27.533C67.6696 26.7514 67.7116 25.2867 66.2822 23.3794C65.3528 22.1394 65.2823 21.9559 65.3729 21.0097C65.4484 20.2226 65.6827 19.7177 66.3805 18.8391C67.1248 17.9015 67.2896 17.5249 67.2896 16.7619C67.2896 16.1576 67.1611 15.724 66.924 15.5287C66.7229 15.3633 66.2798 14.7886 65.9394 14.2521C65.0073 12.7832 65.1228 11.5818 66.3201 10.2904C66.5999 9.9887 66.983 9.37165 67.1714 8.91896C67.4732 8.19483 67.4766 8.00568 67.2003 7.34255C66.5634 5.81398 64.8283 5.47364 63.6575 6.64782ZM73.4689 6.22959C72.0563 6.84532 71.948 8.43226 73.2045 10.1039C73.6901 10.7495 74.1438 11.5002 74.213 11.7716C74.3677 12.3794 74.7287 12.4233 74.7287 11.8341C74.7287 11.5969 75.0066 11.0784 75.3459 10.6821C76.7924 8.99313 77.0875 7.82267 76.3102 6.86002C75.5312 5.89583 74.6722 5.70514 73.4689 6.22959ZM74.4539 12.614C74.3644 12.7037 74.2911 12.9464 74.2911 13.1531C74.2911 13.3601 73.848 14.1013 73.3065 14.8006C71.9865 16.5056 71.9874 17.1817 73.3124 18.9414C74.767 20.8735 74.7068 21.566 72.8654 24.0923C72.2526 24.933 72.174 25.8243 72.6337 26.7161C72.9437 27.3176 73.7844 27.8451 74.4324 27.8451C75.0803 27.8451 76.201 27.1626 76.4487 26.6173C76.9749 25.4594 76.7587 24.7587 75.3168 22.946C74.0966 21.412 74.681 19.4985 76.8845 17.8128C77.5847 17.2774 78.0494 17.0928 78.6983 17.0928C79.6809 17.0928 80.112 17.2846 81.4882 18.3344C82.0676 18.7766 82.7021 19.0677 83.0852 19.0677C84.8183 19.0677 85.9512 17.3891 85.2054 15.9263C84.4689 14.482 82.9437 14.2784 81.4462 15.4247C80.094 16.4598 79.6812 16.654 78.8338 16.654C77.3733 16.654 75.0669 14.658 74.7538 13.1231C74.6786 12.7533 74.5436 12.5242 74.4539 12.614ZM159.605 36.2641C159.174 36.4186 158.601 36.7001 158.331 36.8899C157.692 37.3386 150.859 45.0252 150.927 45.2176C151.036 45.5239 154.46 49.2398 154.633 49.2398C154.733 49.2398 157.166 46.5737 160.041 43.3151C165.246 37.4139 165.265 37.3889 164.796 37.0069C163.671 36.089 161.114 35.7232 159.605 36.2641Z" fill="#1E1E1E"/>
</svg>
